<?xml version="1.0" encoding="utf-8"?>
<!-- Generator: Adobe Illustrator 24.3.0, SVG Export Plug-In . SVG Version: 6.00 Build 0)  -->
<svg version="1.1" id="Layer_1" xmlns="http://www.w3.org/2000/svg" xmlns:xlink="http://www.w3.org/1999/xlink" x="0px" y="0px"
	 viewBox="0 0 841.9 595.3" style="enable-background:new 0 0 841.9 595.3;" xml:space="preserve">
<style type="text/css">
	.st0{opacity:0.2;}
	.st1{fill:#FFFFFF;}
	.st2{fill-rule:evenodd;clip-rule:evenodd;fill:#FFFFFF;}
</style>
<g>
	<g>
		<g>
			<g>
				<g class="st0">
					<g>
						<g>
							<g id="XMLID_10_">
								<g>
									<path class="st1" d="M348.5,364.4"/>
								</g>
							</g>
						</g>
					</g>
				</g>
				<g>
					<g>
						<path class="st1" d="M316.3,296.3c8.3-15.7,14.8-32.2,18.7-46c-1.5-0.2-3-0.3-4.6-0.5c-3.8,13-9.9,28.8-18.1,44.4
							c-1.5,2.9-3.1,5.7-4.7,8.5c2.2-0.7,4.4-1.5,6.6-2.3C314.8,299,315.5,297.6,316.3,296.3z"/>
						<path class="st1" d="M258,265.5c1-1.9,2-3.7,3-5.5c-2.2,0.7-4.3,1.4-6.4,2.1c-0.2,0.4-0.5,0.8-0.7,1.3
							c-9.2,17.4-15.8,34.4-19.6,49.4c1.5,0.1,3,0.2,4.6,0.3C242.6,299.1,248.8,282.8,258,265.5z"/>
						<g>
							<path class="st1" d="M249.1,287.3c-0.7,1.6-1.4,3.2-2,4.8c6.6,5.9,14.8,11.4,24.2,16c9.7,4.7,19.6,7.9,28.9,9.4
								c1-1.4,1.9-2.9,2.8-4.4c-9.4-1.2-19.7-4.4-29.7-9.3C263.9,299.2,255.6,293.4,249.1,287.3z"/>
							<path class="st1" d="M332.5,277.6c-7.5-10-19.5-19.3-33.6-26.1c-13.7-6.7-28-10.4-40.3-10.4c-13.6,0-23.2,4.4-27.2,12.5
								c-4.9,10,0.2,23.1,12.1,35.1c0.7-1.6,1.3-3.3,2-4.9c-9.3-10-13.5-20.6-9.9-28.1c3-6.2,11.4-9.8,22.9-9.8
								c11.6,0,25.2,3.5,38.2,9.9c13.4,6.6,24.7,15.3,31.8,24.7c6.7,8.9,8.8,17.2,5.8,23.4c-3,6.2-11.4,9.8-22.9,9.8
								c-1.1,0-2.3-0.1-3.4-0.1c-1,1.5-1.9,3.1-2.9,4.6c2.1,0.2,4.2,0.3,6.3,0.3c13.6,0,23.2-4.4,27.2-12.5
								C342.6,298.1,340.4,288.1,332.5,277.6z"/>
						</g>
						<path class="st1" d="M303.8,308.7c-19,30.8-41.8,52.6-56.2,52.6c-1.9,0-3.6-0.4-5.1-1.2c-7.8-4.1-9.9-20-4.8-42.4
							c-1.6-0.1-3.1-0.2-4.6-0.3c-5.2,23.5-3.1,41.3,7.3,46.7c2.1,1.1,4.6,1.7,7.2,1.7c17.1,0,42.1-23.9,62.8-59.3
							C308.3,307.4,306.1,308.1,303.8,308.7z"/>
					</g>
					<g>
						<path class="st1" d="M291.1,305.8c-3.7,0.9-7.4,1.6-11.1,2.3c3,1.2,5.9,2.2,8.8,3.1c1.1-0.2,2.2-0.5,3.3-0.7
							c15.7-3.6,30.3-8.7,42.5-14.7c-0.3-1.5-0.7-3-1.3-4.6C321.4,297.1,306.8,302.2,291.1,305.8z"/>
						<path class="st1" d="M233.7,264.7c0.2,1.5,0.6,3.1,1.1,4.7c11.6-6,26.6-11.6,44.3-15.7c2.2-0.5,4.3-1,6.5-1.4
							c-3.1-1.1-6.1-2.1-9.1-2.9C260.1,253.4,245.5,258.7,233.7,264.7z"/>
						<path class="st1" d="M271.3,309.5c-8.2,1.1-16.2,1.7-23.6,1.7c-22.4,0-37.5-5.2-39.4-13.6c-1.6-7.1,6.6-16.8,22.3-25.8
							c-0.6-1.6-1-3.1-1.3-4.7c-17.8,10-28,21.5-25.6,31.5c2.6,11,18.6,17.3,44.1,17.3c9.9,0,20.8-1,31.9-2.9
							C276.8,312,274,310.8,271.3,309.5z"/>
						<path class="st1" d="M366.6,260.9c-2.5-11-18.6-17.3-44.1-17.3c-11.3,0-23.9,1.3-36.6,3.8c2.8,1,5.6,2.1,8.4,3.3
							c9.8-1.6,19.4-2.4,28.2-2.4c22.4,0,37.5,5.2,39.4,13.6c1.5,6.4-4.9,14.8-17.5,22.9c-2.2,1.4-4.5,2.7-6.9,4
							c0.6,1.6,1.1,3.1,1.5,4.6c2.8-1.5,5.5-3.1,8-4.6C361.7,279.5,368.6,269.5,366.6,260.9z"/>
					</g>
				</g>
			</g>
			<path class="st2" d="M297.2,280.2c0,7.3-5.9,13.2-13.2,13.2c-7.3,0-13.2-5.9-13.2-13.2c0-7.3,5.9-13.2,13.2-13.2
				C291.3,267,297.2,272.9,297.2,280.2z"/>
		</g>
		<g>
			<path class="st1" d="M264.4,254c1.7-2.8,3.4-5.6,5.2-8.3c-1.7-0.3-3.4-0.5-5.1-0.7c-2.2,3.5-4.4,7.1-6.5,10.9
				C260.1,255.3,262.3,254.6,264.4,254z"/>
			<path class="st1" d="M272.5,241.4c17.6-25.7,37.2-43.1,50-43.1c1.9,0,3.6,0.4,5.1,1.2c8.3,4.4,10.1,22.1,3.8,46.7
				c1.6,0.1,3.1,0.3,4.6,0.5c6.5-25.7,4.8-45.5-6.2-51.3c-2.2-1.1-4.6-1.7-7.2-1.7c-15,0-36.1,18.4-55.1,46.9
				C269.1,240.8,270.8,241.1,272.5,241.4z"/>
		</g>
	</g>
	<g>
		<g>
			<path class="st1" d="M375.2,401.6v-52.1l-24.6,31l-24.7-31v52.1h-11.3v-73.3h6.6l29.4,37.2l29.4-37.2h6.5v73.3H375.2z"/>
			<path class="st1" d="M441.1,401.6v-51.7l-38.7,51.7h-6.6v-73.3h11.3V380l38.7-51.7h6.6v73.3H441.1z"/>
			<path class="st1" d="M616.8,401.6v-51.7l-38.7,51.7h-6.6v-73.3h11.3V380l38.7-51.7h6.6v73.3H616.8z"/>
		</g>
	</g>
	<g>
		<g>
			<path class="st1" d="M527.1,304V291h-13.1V304h-6.7v-31.9h6.7V285h13.1v-12.9h6.7V304H527.1z"/>
			<path class="st1" d="M561.4,304V284L545.3,304h-3.9v-31.9h6.7v20.1l16.1-20.1h4V304H561.4z"/>
			<path class="st1" d="M593.9,304v-7.8h-3.8c-3.3,0.1-4.2,0.8-6.8,4.6l-2.2,3.2h-7.5l2.9-4.2c2.1-3.1,3.6-4.7,5.1-5.6
				c-4.6-1.7-7.3-5.3-7.3-10c0-6.7,5.2-12,14.7-12h11.5V304H593.9z M588.4,278.1c-4.4,0-7.8,2-7.8,6.1c0,4.3,3.4,6.1,7.8,6.1h5.5
				v-12.2H588.4z"/>
			<path class="st1" d="M611.7,304l7-11.5l-12.3-20.4h7.6l8.5,13.9l8.5-13.9h7.6L619.3,304H611.7z"/>
		</g>
	</g>
	<g>
		<path class="st1" d="M537.8,330.9c-8.7,0-16.2,4.5-20.2,10.9v-13.5h-11.3v32.9c0,11.3-8.4,19.5-19,19.5c-10.7,0-19-8.2-19-19.5
			c0-11.3,8.4-19.6,19-19.6c5.6,0,10.6,2.3,14.1,6.2v-11.5c-4.1-3.3-9.4-5.4-15.2-5.4c-17.5,0-29.3,13.4-29.3,30.2
			c0,16.8,11.8,30.1,29.3,30.1c8.7,0,16.2-4.4,20.2-10.8v21l11.5,0v-41.9l0,0c0.7-10.5,8.8-18.1,19-18.1c10.7,0,19,8.3,19,19.6
			c0,11.3-8.4,19.5-19,19.5c-5.6,0-10.5-2.3-13.9-6v11.6c4,3.1,9.2,5.1,15,5.1c17.4,0,29.2-13.3,29.2-30.1
			C567,344.3,555.1,330.9,537.8,330.9z"/>
	</g>
</g>
</svg>
